<mxfile host="app.diagrams.net" agent="Mozilla/5.0 (Windows NT 10.0; Win64; x64) AppleWebKit/537.36 (KHTML, like Gecko) Chrome/129.0.0.0 Safari/537.36" version="24.7.17">
  <diagram name="Halaman-1" id="WVt6rYlHBZlzRAkFvuZl">
    <mxGraphModel grid="1" page="1" gridSize="10" guides="1" tooltips="1" connect="1" arrows="1" fold="1" pageScale="1" pageWidth="827" pageHeight="1169" math="0" shadow="0">
      <root>
        <mxCell id="0" />
        <mxCell id="1" parent="0" />
        <mxCell id="jDfXnK-RP0-3xCSLf5l2-9" value="" style="edgeStyle=orthogonalEdgeStyle;rounded=0;orthogonalLoop=1;jettySize=auto;html=1;" edge="1" parent="1" source="jDfXnK-RP0-3xCSLf5l2-1" target="jDfXnK-RP0-3xCSLf5l2-4">
          <mxGeometry relative="1" as="geometry" />
        </mxCell>
        <mxCell id="jDfXnK-RP0-3xCSLf5l2-1" value="Pelanggan" style="rounded=0;whiteSpace=wrap;html=1;" vertex="1" parent="1">
          <mxGeometry x="160" y="80" width="120" height="60" as="geometry" />
        </mxCell>
        <mxCell id="jDfXnK-RP0-3xCSLf5l2-2" value="DFD SISTEM PEMESANAN MAKANAN ONLINE" style="text;html=1;align=center;verticalAlign=middle;resizable=0;points=[];autosize=1;strokeColor=none;fillColor=none;" vertex="1" parent="1">
          <mxGeometry x="269" y="10" width="290" height="30" as="geometry" />
        </mxCell>
        <mxCell id="jDfXnK-RP0-3xCSLf5l2-3" value="Restoran" style="rounded=0;whiteSpace=wrap;html=1;" vertex="1" parent="1">
          <mxGeometry x="520" y="70" width="120" height="60" as="geometry" />
        </mxCell>
        <mxCell id="jDfXnK-RP0-3xCSLf5l2-11" value="" style="edgeStyle=orthogonalEdgeStyle;rounded=0;orthogonalLoop=1;jettySize=auto;html=1;" edge="1" parent="1" source="jDfXnK-RP0-3xCSLf5l2-4" target="jDfXnK-RP0-3xCSLf5l2-6">
          <mxGeometry relative="1" as="geometry" />
        </mxCell>
        <mxCell id="jDfXnK-RP0-3xCSLf5l2-22" value="" style="edgeStyle=orthogonalEdgeStyle;rounded=0;orthogonalLoop=1;jettySize=auto;html=1;" edge="1" parent="1" source="jDfXnK-RP0-3xCSLf5l2-4">
          <mxGeometry relative="1" as="geometry">
            <mxPoint x="520" y="270" as="targetPoint" />
          </mxGeometry>
        </mxCell>
        <mxCell id="jDfXnK-RP0-3xCSLf5l2-4" value="Proses&lt;div&gt;Pemprosesan&lt;/div&gt;&lt;div&gt;Makanan&lt;/div&gt;" style="ellipse;whiteSpace=wrap;html=1;" vertex="1" parent="1">
          <mxGeometry x="160" y="230" width="120" height="80" as="geometry" />
        </mxCell>
        <mxCell id="jDfXnK-RP0-3xCSLf5l2-14" value="" style="edgeStyle=orthogonalEdgeStyle;rounded=0;orthogonalLoop=1;jettySize=auto;html=1;" edge="1" parent="1" source="jDfXnK-RP0-3xCSLf5l2-5" target="jDfXnK-RP0-3xCSLf5l2-3">
          <mxGeometry relative="1" as="geometry" />
        </mxCell>
        <mxCell id="jDfXnK-RP0-3xCSLf5l2-16" value="" style="edgeStyle=orthogonalEdgeStyle;rounded=0;orthogonalLoop=1;jettySize=auto;html=1;" edge="1" parent="1" source="jDfXnK-RP0-3xCSLf5l2-5" target="jDfXnK-RP0-3xCSLf5l2-7">
          <mxGeometry relative="1" as="geometry" />
        </mxCell>
        <mxCell id="jDfXnK-RP0-3xCSLf5l2-5" value="Proses di Restoran" style="ellipse;whiteSpace=wrap;html=1;" vertex="1" parent="1">
          <mxGeometry x="520" y="230" width="120" height="80" as="geometry" />
        </mxCell>
        <mxCell id="jDfXnK-RP0-3xCSLf5l2-17" value="" style="edgeStyle=orthogonalEdgeStyle;rounded=0;orthogonalLoop=1;jettySize=auto;html=1;" edge="1" parent="1" source="jDfXnK-RP0-3xCSLf5l2-6" target="jDfXnK-RP0-3xCSLf5l2-8">
          <mxGeometry relative="1" as="geometry" />
        </mxCell>
        <mxCell id="jDfXnK-RP0-3xCSLf5l2-18" value="Konfirmasi pembayaran" style="edgeLabel;html=1;align=center;verticalAlign=middle;resizable=0;points=[];" connectable="0" vertex="1" parent="jDfXnK-RP0-3xCSLf5l2-17">
          <mxGeometry x="-0.2286" y="9" relative="1" as="geometry">
            <mxPoint x="55" y="3" as="offset" />
          </mxGeometry>
        </mxCell>
        <mxCell id="jDfXnK-RP0-3xCSLf5l2-6" value="Proses Pembayaran" style="ellipse;whiteSpace=wrap;html=1;" vertex="1" parent="1">
          <mxGeometry x="160" y="400" width="120" height="80" as="geometry" />
        </mxCell>
        <mxCell id="jDfXnK-RP0-3xCSLf5l2-29" value="" style="edgeStyle=orthogonalEdgeStyle;rounded=0;orthogonalLoop=1;jettySize=auto;html=1;" edge="1" parent="1" source="jDfXnK-RP0-3xCSLf5l2-7">
          <mxGeometry relative="1" as="geometry">
            <mxPoint x="285" y="440" as="targetPoint" />
          </mxGeometry>
        </mxCell>
        <mxCell id="jDfXnK-RP0-3xCSLf5l2-7" value="Payment Gateway" style="rounded=0;whiteSpace=wrap;html=1;" vertex="1" parent="1">
          <mxGeometry x="520" y="410" width="120" height="60" as="geometry" />
        </mxCell>
        <mxCell id="jDfXnK-RP0-3xCSLf5l2-8" value="Proses Registrasi&lt;div&gt;Akun&lt;/div&gt;" style="ellipse;whiteSpace=wrap;html=1;" vertex="1" parent="1">
          <mxGeometry x="160" y="550" width="120" height="80" as="geometry" />
        </mxCell>
        <mxCell id="jDfXnK-RP0-3xCSLf5l2-10" value="Permintaan pesanan" style="text;html=1;align=center;verticalAlign=middle;resizable=0;points=[];autosize=1;strokeColor=none;fillColor=none;" vertex="1" parent="1">
          <mxGeometry x="220" y="168" width="130" height="30" as="geometry" />
        </mxCell>
        <mxCell id="jDfXnK-RP0-3xCSLf5l2-12" value="Detail pesanan" style="text;html=1;align=center;verticalAlign=middle;resizable=0;points=[];autosize=1;strokeColor=none;fillColor=none;" vertex="1" parent="1">
          <mxGeometry x="220" y="340" width="100" height="30" as="geometry" />
        </mxCell>
        <mxCell id="jDfXnK-RP0-3xCSLf5l2-15" value="Status pesanan" style="text;html=1;align=center;verticalAlign=middle;resizable=0;points=[];autosize=1;strokeColor=none;fillColor=none;" vertex="1" parent="1">
          <mxGeometry x="590" y="168" width="110" height="30" as="geometry" />
        </mxCell>
        <mxCell id="jDfXnK-RP0-3xCSLf5l2-20" value="" style="edgeStyle=orthogonalEdgeStyle;rounded=0;orthogonalLoop=1;jettySize=auto;html=1;" edge="1" parent="1" source="jDfXnK-RP0-3xCSLf5l2-19" target="jDfXnK-RP0-3xCSLf5l2-8">
          <mxGeometry relative="1" as="geometry" />
        </mxCell>
        <mxCell id="jDfXnK-RP0-3xCSLf5l2-19" value="Pendaftaran akun oleh pelanggan" style="text;html=1;align=center;verticalAlign=middle;resizable=0;points=[];autosize=1;strokeColor=none;fillColor=none;" vertex="1" parent="1">
          <mxGeometry x="120" y="710" width="200" height="30" as="geometry" />
        </mxCell>
        <mxCell id="jDfXnK-RP0-3xCSLf5l2-33" value="" style="edgeStyle=orthogonalEdgeStyle;rounded=0;orthogonalLoop=1;jettySize=auto;html=1;" edge="1" parent="1" source="jDfXnK-RP0-3xCSLf5l2-30">
          <mxGeometry relative="1" as="geometry">
            <mxPoint x="285" y="595" as="targetPoint" />
          </mxGeometry>
        </mxCell>
        <mxCell id="jDfXnK-RP0-3xCSLf5l2-34" value="" style="edgeStyle=orthogonalEdgeStyle;rounded=0;orthogonalLoop=1;jettySize=auto;html=1;" edge="1" parent="1" source="jDfXnK-RP0-3xCSLf5l2-30" target="jDfXnK-RP0-3xCSLf5l2-7">
          <mxGeometry relative="1" as="geometry" />
        </mxCell>
        <mxCell id="jDfXnK-RP0-3xCSLf5l2-30" value="" style="shape=waypoint;sketch=0;size=6;pointerEvents=1;points=[];fillColor=default;resizable=0;rotatable=0;perimeter=centerPerimeter;snapToPoint=1;rounded=0;" vertex="1" parent="1">
          <mxGeometry x="570" y="585" width="20" height="20" as="geometry" />
        </mxCell>
        <mxCell id="jDfXnK-RP0-3xCSLf5l2-35" value="Informasi pembayaran" style="text;html=1;align=center;verticalAlign=middle;resizable=0;points=[];autosize=1;strokeColor=none;fillColor=none;" vertex="1" parent="1">
          <mxGeometry x="575" y="520" width="140" height="30" as="geometry" />
        </mxCell>
      </root>
    </mxGraphModel>
  </diagram>
</mxfile>
